<?xml version="1.0" standalone="no"?>
<!DOCTYPE svg PUBLIC "-//W3C//DTD SVG 20010904//EN"
 "http://www.w3.org/TR/2001/REC-SVG-20010904/DTD/svg10.dtd">
<svg version="1.0" xmlns="http://www.w3.org/2000/svg"
 width="100.000000pt" height="100.000000pt" viewBox="0 0 100.000000 100.000000"
 preserveAspectRatio="xMidYMid meet">

<g transform="translate(0.000000,100.000000) scale(0.100000,-0.100000)"
fill="#000000" stroke="none">
<path d="M471 870 c-19 -9 -22 -15 -16 -38 4 -15 7 -28 8 -29 1 -1 27 2 57 5
53 7 55 8 55 37 0 28 -3 30 -40 32 -22 1 -51 -2 -64 -7z"/>
<path d="M28 679 c-5 -3 -8 -24 -6 -45 3 -34 6 -39 30 -42 31 -4 30 3 53 -252
l14 -165 48 -44 c104 -96 270 -145 410 -122 90 16 194 65 256 122 l48 44 14
165 c23 255 22 248 53 252 24 3 27 8 30 46 2 23 0 42 -5 42 -136 4 -938 3
-945 -1z m281 -156 c10 -17 10 -17 11 0 0 9 7 17 15 17 11 0 15 -12 15 -45 0
-38 3 -45 19 -45 14 0 23 12 34 43 18 56 47 58 60 5 5 -21 15 -38 22 -38 7 0
22 -3 32 -6 12 -4 8 3 -10 19 -18 15 -28 32 -25 43 3 16 14 19 81 22 46 1 77
-2 77 -8 0 -5 -4 -10 -10 -10 -5 0 -10 -20 -10 -45 0 -33 -4 -45 -14 -45 -10
0 -16 14 -18 43 -3 42 -3 42 -42 43 l-39 1 26 -19 c31 -23 35 -53 8 -67 -20
-11 -91 -3 -91 10 0 5 -7 9 -15 9 -8 0 -15 -4 -15 -10 0 -5 -22 -10 -50 -10
l-50 0 0 38 c-1 30 -3 34 -11 20 -5 -10 -19 -18 -29 -18 -13 0 -20 -7 -20 -20
0 -11 -7 -20 -15 -20 -12 0 -15 13 -15 55 l0 55 35 0 c22 0 38 -6 44 -17z
m371 -38 c0 -42 -3 -55 -15 -55 -12 0 -15 13 -15 55 0 42 3 55 15 55 12 0 15
-13 15 -55z m84 39 c10 -26 -4 -37 -25 -18 -18 17 -19 16 -19 -20 0 -33 1 -35
20 -24 22 14 33 8 24 -15 -8 -22 -32 -29 -55 -17 -14 8 -19 21 -19 54 0 23 3
46 7 49 13 13 61 7 67 -9z m-270 -179 c16 -24 15 -27 -6 -64 l-22 -39 -38 21
c-21 12 -38 26 -38 31 0 19 52 76 69 76 10 0 26 -11 35 -25z m169 -120 c29
-62 19 -85 -36 -85 -15 0 -29 13 -44 38 l-22 39 37 21 c20 12 40 22 43 22 3 0
13 -16 22 -35z m-173 -120 l0 -45 -50 0 c-58 0 -69 13 -50 60 11 27 17 30 56
30 l44 0 0 -45z"/>
<path d="M260 505 c0 -8 5 -15 10 -15 6 0 10 7 10 15 0 8 -4 15 -10 15 -5 0
-10 -7 -10 -15z"/>
</g>
</svg>
